<mxfile host="app.diagrams.net" agent="Mozilla/5.0 (X11; Linux x86_64; rv:142.0) Gecko/20100101 Firefox/142.0" version="28.2.0">
  <diagram name="Page-1" id="e7e014a7-5840-1c2e-5031-d8a46d1fe8dd">
    <mxGraphModel dx="882" dy="760" grid="1" gridSize="10" guides="1" tooltips="1" connect="1" arrows="1" fold="1" page="1" pageScale="1" pageWidth="1169" pageHeight="826" background="none" math="0" shadow="0">
      <root>
        <mxCell id="0" />
        <mxCell id="1" parent="0" />
        <mxCell id="2" value="LLM" style="swimlane;whiteSpace=wrap" parent="1" vertex="1">
          <mxGeometry x="164.5" y="128" width="280" height="532" as="geometry" />
        </mxCell>
        <mxCell id="5" value="" style="ellipse;shape=startState;fillColor=#000000;strokeColor=light-dark(#000000,#000000);" parent="2" vertex="1">
          <mxGeometry x="120.25" y="40" width="30" height="30" as="geometry" />
        </mxCell>
        <mxCell id="6" value="" style="edgeStyle=elbowEdgeStyle;elbow=horizontal;verticalAlign=bottom;endArrow=open;endSize=8;strokeColor=light-dark(#000000,#000000);endFill=1;rounded=0" parent="2" source="5" target="7" edge="1">
          <mxGeometry x="100" y="40" as="geometry">
            <mxPoint x="115" y="110" as="targetPoint" />
          </mxGeometry>
        </mxCell>
        <mxCell id="e5NmGorjxUVgLRNsEIw5-56" style="edgeStyle=orthogonalEdgeStyle;rounded=0;orthogonalLoop=1;jettySize=auto;html=1;strokeColor=light-dark(#000000,#000000);" edge="1" parent="2" source="7" target="e5NmGorjxUVgLRNsEIw5-54">
          <mxGeometry relative="1" as="geometry" />
        </mxCell>
        <mxCell id="7" value="Connect to Agent" style="strokeColor=light-dark(#000000,#000000);" parent="2" vertex="1">
          <mxGeometry x="80.25" y="112" width="110" height="50" as="geometry" />
        </mxCell>
        <mxCell id="e5NmGorjxUVgLRNsEIw5-63" style="edgeStyle=orthogonalEdgeStyle;rounded=0;orthogonalLoop=1;jettySize=auto;html=1;" edge="1" parent="2" source="e5NmGorjxUVgLRNsEIw5-54" target="e5NmGorjxUVgLRNsEIw5-62">
          <mxGeometry relative="1" as="geometry" />
        </mxCell>
        <mxCell id="e5NmGorjxUVgLRNsEIw5-54" value="Connect to Agent" style="strokeColor=light-dark(#000000,#000000);" vertex="1" parent="2">
          <mxGeometry x="80.25" y="202" width="110" height="50" as="geometry" />
        </mxCell>
        <mxCell id="e5NmGorjxUVgLRNsEIw5-62" value="Resolve MCP &#xa;Commands" style="strokeColor=light-dark(#000000,#000000);" vertex="1" parent="2">
          <mxGeometry x="80.25" y="292" width="110" height="50" as="geometry" />
        </mxCell>
        <mxCell id="e5NmGorjxUVgLRNsEIw5-77" style="edgeStyle=orthogonalEdgeStyle;rounded=0;orthogonalLoop=1;jettySize=auto;html=1;entryX=0;entryY=0.5;entryDx=0;entryDy=0;exitX=0;exitY=0.5;exitDx=0;exitDy=0;" edge="1" parent="2" source="e5NmGorjxUVgLRNsEIw5-73" target="e5NmGorjxUVgLRNsEIw5-62">
          <mxGeometry relative="1" as="geometry" />
        </mxCell>
        <mxCell id="e5NmGorjxUVgLRNsEIw5-78" value="Further&lt;br&gt;Commands" style="edgeLabel;html=1;align=center;verticalAlign=middle;resizable=0;points=[];" vertex="1" connectable="0" parent="e5NmGorjxUVgLRNsEIw5-77">
          <mxGeometry x="-0.0937" y="-1" relative="1" as="geometry">
            <mxPoint as="offset" />
          </mxGeometry>
        </mxCell>
        <mxCell id="e5NmGorjxUVgLRNsEIw5-73" value="Analyze MCP&lt;br&gt;Result" style="rhombus;whiteSpace=wrap;html=1;fontColor=#000000;fillColor=#FFFFFF;strokeColor=light-dark(#000000,#000000);" vertex="1" parent="2">
          <mxGeometry x="65.5" y="372" width="139.5" height="60" as="geometry" />
        </mxCell>
        <mxCell id="3" value="MCP Client" style="swimlane;whiteSpace=wrap" parent="1" vertex="1">
          <mxGeometry x="444.5" y="128" width="280" height="532" as="geometry" />
        </mxCell>
        <mxCell id="13" value="" style="ellipse;shape=startState;fillColor=#000000;strokeColor=light-dark(#000000,#000000);" parent="3" vertex="1">
          <mxGeometry x="95.5" y="40" width="30" height="30" as="geometry" />
        </mxCell>
        <mxCell id="14" value="" style="edgeStyle=elbowEdgeStyle;elbow=horizontal;verticalAlign=bottom;endArrow=open;endSize=8;strokeColor=light-dark(#000000,#000000);endFill=1;rounded=0" parent="3" source="13" target="16" edge="1">
          <mxGeometry x="40" y="20" as="geometry">
            <mxPoint x="75.15517241379325" y="109.99999999999989" as="targetPoint" />
          </mxGeometry>
        </mxCell>
        <mxCell id="16" value="Connect to LLM" style="strokeColor=light-dark(#000000,#000000);" parent="3" vertex="1">
          <mxGeometry x="55.5" y="112" width="110" height="50" as="geometry" />
        </mxCell>
        <mxCell id="18" value="Transmit Prompt" style="strokeColor=light-dark(#000000,#000000);" parent="3" vertex="1">
          <mxGeometry x="55.5" y="202" width="110" height="50" as="geometry" />
        </mxCell>
        <mxCell id="19" value="" style="endArrow=open;strokeColor=light-dark(#000000,#000000);endFill=1;rounded=0" parent="3" source="16" target="18" edge="1">
          <mxGeometry relative="1" as="geometry" />
        </mxCell>
        <mxCell id="e5NmGorjxUVgLRNsEIw5-64" value="Transmit MCP&#xa;Commands" style="strokeColor=light-dark(#000000,#000000);" vertex="1" parent="3">
          <mxGeometry x="55.5" y="292" width="110" height="50" as="geometry" />
        </mxCell>
        <mxCell id="e5NmGorjxUVgLRNsEIw5-68" value="Transmit MCP&#xa;Return" style="strokeColor=light-dark(#000000,#000000);" vertex="1" parent="3">
          <mxGeometry x="55.5" y="377" width="110" height="50" as="geometry" />
        </mxCell>
        <mxCell id="38" value="" style="ellipse;shape=endState;fillColor=#000000;strokeColor=#000000;" parent="3" vertex="1">
          <mxGeometry x="95.5" y="472" width="30" height="30" as="geometry" />
        </mxCell>
        <mxCell id="4" value="Playwright MCP Server" style="swimlane;whiteSpace=wrap" parent="1" vertex="1">
          <mxGeometry x="724.5" y="128" width="205.5" height="532" as="geometry" />
        </mxCell>
        <mxCell id="e5NmGorjxUVgLRNsEIw5-41" value="Initiate Playwright&#xa; Browser" style="strokeColor=light-dark(#000000,#000000);" vertex="1" parent="4">
          <mxGeometry x="25.5" y="112" width="110" height="50" as="geometry" />
        </mxCell>
        <mxCell id="e5NmGorjxUVgLRNsEIw5-53" style="edgeStyle=orthogonalEdgeStyle;rounded=0;orthogonalLoop=1;jettySize=auto;html=1;strokeColor=light-dark(#000000,#000000);" edge="1" parent="4" source="e5NmGorjxUVgLRNsEIw5-52" target="e5NmGorjxUVgLRNsEIw5-41">
          <mxGeometry relative="1" as="geometry" />
        </mxCell>
        <mxCell id="e5NmGorjxUVgLRNsEIw5-52" value="" style="ellipse;shape=startState;fillColor=#000000;strokeColor=light-dark(#000000,#000000);" vertex="1" parent="4">
          <mxGeometry x="65.5" y="42" width="30" height="30" as="geometry" />
        </mxCell>
        <mxCell id="e5NmGorjxUVgLRNsEIw5-66" value="Execute MCP&#xa;Commands" style="strokeColor=light-dark(#000000,#000000);" vertex="1" parent="4">
          <mxGeometry x="25.5" y="292" width="110" height="50" as="geometry" />
        </mxCell>
        <mxCell id="e5NmGorjxUVgLRNsEIw5-55" style="edgeStyle=orthogonalEdgeStyle;rounded=0;orthogonalLoop=1;jettySize=auto;html=1;strokeColor=light-dark(#000000,#000000);" edge="1" parent="1" source="18" target="e5NmGorjxUVgLRNsEIw5-54">
          <mxGeometry relative="1" as="geometry" />
        </mxCell>
        <mxCell id="e5NmGorjxUVgLRNsEIw5-58" style="edgeStyle=orthogonalEdgeStyle;rounded=0;orthogonalLoop=1;jettySize=auto;html=1;" edge="1" parent="1" source="16" target="7">
          <mxGeometry relative="1" as="geometry" />
        </mxCell>
        <mxCell id="e5NmGorjxUVgLRNsEIw5-61" value="Transmit Toolkit" style="edgeLabel;html=1;align=center;verticalAlign=middle;resizable=0;points=[];" vertex="1" connectable="0" parent="e5NmGorjxUVgLRNsEIw5-58">
          <mxGeometry x="0.2275" y="-1" relative="1" as="geometry">
            <mxPoint x="13" y="1" as="offset" />
          </mxGeometry>
        </mxCell>
        <mxCell id="e5NmGorjxUVgLRNsEIw5-59" style="edgeStyle=orthogonalEdgeStyle;rounded=0;orthogonalLoop=1;jettySize=auto;html=1;" edge="1" parent="1" source="e5NmGorjxUVgLRNsEIw5-41" target="16">
          <mxGeometry relative="1" as="geometry" />
        </mxCell>
        <mxCell id="e5NmGorjxUVgLRNsEIw5-60" value="Transmit Toolkit" style="edgeLabel;html=1;align=center;verticalAlign=middle;resizable=0;points=[];" vertex="1" connectable="0" parent="e5NmGorjxUVgLRNsEIw5-59">
          <mxGeometry x="0.2324" y="-1" relative="1" as="geometry">
            <mxPoint as="offset" />
          </mxGeometry>
        </mxCell>
        <mxCell id="e5NmGorjxUVgLRNsEIw5-65" style="edgeStyle=orthogonalEdgeStyle;rounded=0;orthogonalLoop=1;jettySize=auto;html=1;" edge="1" parent="1" source="e5NmGorjxUVgLRNsEIw5-62" target="e5NmGorjxUVgLRNsEIw5-64">
          <mxGeometry relative="1" as="geometry" />
        </mxCell>
        <mxCell id="e5NmGorjxUVgLRNsEIw5-67" style="edgeStyle=orthogonalEdgeStyle;rounded=0;orthogonalLoop=1;jettySize=auto;html=1;" edge="1" parent="1" source="e5NmGorjxUVgLRNsEIw5-64" target="e5NmGorjxUVgLRNsEIw5-66">
          <mxGeometry relative="1" as="geometry" />
        </mxCell>
        <mxCell id="e5NmGorjxUVgLRNsEIw5-69" style="edgeStyle=orthogonalEdgeStyle;rounded=0;orthogonalLoop=1;jettySize=auto;html=1;entryX=1;entryY=0.5;entryDx=0;entryDy=0;exitX=0.5;exitY=1;exitDx=0;exitDy=0;" edge="1" parent="1" source="e5NmGorjxUVgLRNsEIw5-66" target="e5NmGorjxUVgLRNsEIw5-68">
          <mxGeometry relative="1" as="geometry" />
        </mxCell>
        <mxCell id="e5NmGorjxUVgLRNsEIw5-76" style="edgeStyle=orthogonalEdgeStyle;rounded=0;orthogonalLoop=1;jettySize=auto;html=1;entryX=1;entryY=0.5;entryDx=0;entryDy=0;" edge="1" parent="1" source="e5NmGorjxUVgLRNsEIw5-68" target="e5NmGorjxUVgLRNsEIw5-73">
          <mxGeometry relative="1" as="geometry" />
        </mxCell>
        <mxCell id="e5NmGorjxUVgLRNsEIw5-79" style="edgeStyle=orthogonalEdgeStyle;rounded=0;orthogonalLoop=1;jettySize=auto;html=1;entryX=0;entryY=0.5;entryDx=0;entryDy=0;" edge="1" parent="1" source="e5NmGorjxUVgLRNsEIw5-73" target="38">
          <mxGeometry relative="1" as="geometry">
            <Array as="points">
              <mxPoint x="300" y="615" />
            </Array>
          </mxGeometry>
        </mxCell>
        <mxCell id="e5NmGorjxUVgLRNsEIw5-80" value="No further&lt;br&gt;Commands" style="edgeLabel;html=1;align=center;verticalAlign=middle;resizable=0;points=[];" vertex="1" connectable="0" parent="e5NmGorjxUVgLRNsEIw5-79">
          <mxGeometry x="0.0776" y="-3" relative="1" as="geometry">
            <mxPoint as="offset" />
          </mxGeometry>
        </mxCell>
      </root>
    </mxGraphModel>
  </diagram>
</mxfile>
